<svg xmlns="http://www.w3.org/2000/svg" xmlns:xlink="http://www.w3.org/1999/xlink" viewBox="0 0 512 512" width="512" height="512" preserveAspectRatio="xMinYMin slice" style="width: 100%; height: 100%; transform: translate3d(0px, 0px, 0px); content-visibility: visible;"><defs><clipPath id="__lottie_element_1618"><rect width="512" height="512" x="0" y="0"></rect></clipPath></defs><g clip-path="url(#__lottie_element_1618)"><g style="display: block;" transform="matrix(1,0,0,1,256,256)" opacity="1"><path stroke-linecap="round" stroke-linejoin="round" fill-opacity="0" stroke="rgb(255,255,255)" stroke-opacity="1" stroke-width="30.72" d=" M0,-164.04 C0,-164.04 0,-139.04 0,-139.04 M0,139.04 C0,139.04 0,164.04 0,164.04 M164.04,0 C164.04,0 139.04,0 139.04,0 M-139.04,0 C-139.04,0 -164.04,0 -164.04,0 M116,-116 C116,-116 98.31,-98.32 98.31,-98.32 M-98.31,98.31 C-98.31,98.31 -115.99,116 -115.99,116 M116,116 C116,116 98.31,98.31 98.31,98.31 M-98.31,-98.31 C-98.31,-98.31 -115.99,-115.99 -115.99,-115.99"></path><g opacity="1" transform="matrix(0.8899999856948853,0,0,0.8899999856948853,0,0)"></g></g><g style="display: block;" transform="matrix(1,0,0,1,256.0039978027344,256.01300048828125)" opacity="0.4"><path stroke-linecap="round" stroke-linejoin="round" fill-opacity="0" stroke="rgb(255,255,255)" stroke-opacity="1" stroke-width="30.72" d=" M0,-85.93299865722656 C47.4640007019043,-85.93299865722656 85.92400360107422,-47.45500183105469 85.92400360107422,-0.008999999612569809 C85.92400360107422,47.45500183105469 47.4640007019043,85.93299865722656 0,85.93299865722656 C-47.46699905395508,85.93299865722656 -85.92400360107422,47.45500183105469 -85.92400360107422,-0.008999999612569809 C-85.92400360107422,-47.45500183105469 -47.46699905395508,-85.93299865722656 0,-85.93299865722656z"></path><g opacity="1" transform="matrix(1,0,0,1,0,0)"></g></g></g></svg>