<svg xmlns="http://www.w3.org/2000/svg" viewBox="0 0 255.9921 255.9921">
  <path d="M8 3C5.2476 3 3 5.2476 3 8v8c0 2.7524 2.2476 5 5 5h8c2.7524 0 5-2.2476 5-5V8c0-2.7524-2.2476-5-5-5zm0 1.5h8A3.489 3.489 0 0 1 19.5 8v8a3.489 3.489 0 0 1-3.5 3.5H8A3.489 3.489 0 0 1 4.5 16V8A3.489 3.489 0 0 1 8 4.5zM17.25 6a.75.75 0 1 0 0 1.5.75.75 0 0 0 0-1.5zM12 7c-1.6042 0-2.9023.6286-3.748 1.58C7.4062 9.5317 7 10.7709 7 12s.4062 2.4684 1.252 3.42C9.0977 16.3713 10.3958 17 12 17s2.9023-.6286 3.748-1.58C16.5938 14.4683 17 13.2291 17 12s-.4062-2.4684-1.252-3.42C14.9023 7.6287 13.6042 7 12 7zm0 1.5c1.2292 0 2.056.434 2.627 1.0762.5708.6422.873 1.528.873 2.4238 0 .8958-.3022 1.7816-.873 2.4238C14.056 15.0661 13.2292 15.5 12 15.5c-1.2292 0-2.056-.434-2.627-1.0762C8.8022 13.7816 8.5 12.8958 8.5 12c0-.8958.3022-1.7816.873-2.4238C9.944 8.9339 10.7708 8.5 12 8.5z"  style="mix-blend-mode:normal"  transform="translate(14.0796 14.0796) scale(9.49334)"/>
</svg>